<svg xmlns="http://www.w3.org/2000/svg" viewBox="0 0 33 32" >
	
	
			<path id="BOOK 2" class="shp0" d="M32.06 25.89L17.59 31.88C17.41 31.96 17.21 32 17 32C16.79 32 16.59 31.96 16.41 31.88L1.94 25.89C1.39 25.67 1 25.13 1 24.5L1 1.5C1 0.67 1.67 0 2.5 0C2.7 0 2.9 0.04 3.07 0.11L3.07 0.11L3.08 0.11C3.08 0.12 3.08 0.12 3.09 0.12L17 5.88L30.91 0.12C30.91 0.12 30.92 0.12 30.92 0.11L30.93 0.11L30.93 0.11C31.1 0.04 31.3 0 31.5 0C32.33 0 33 0.67 33 1.5L33 24.5C33 25.13 32.61 25.67 32.06 25.89ZM15.5 8.5L4 3.74L4 23.5L15.5 28.26L15.5 8.5ZM30 3.74L18.5 8.5L18.5 28.26L30 23.5L30 3.74ZM20.88 10.63L26.38 8.13L26.38 8.13C26.57 8.05 26.78 8 27 8C27.83 8 28.5 8.67 28.5 9.5C28.5 10.11 28.14 10.63 27.62 10.87L27.62 10.87L22.12 13.37L22.12 13.37C21.93 13.45 21.72 13.5 21.5 13.5C20.67 13.5 20 12.83 20 12C20 11.39 20.36 10.87 20.88 10.63ZM20.88 16.13L20.88 16.13L26.38 13.63L26.38 13.63C26.57 13.55 26.78 13.5 27 13.5C27.83 13.5 28.5 14.17 28.5 15C28.5 15.61 28.14 16.13 27.62 16.37L22.12 18.87L22.12 18.86C21.93 18.95 21.72 19 21.5 19C20.67 19 20 18.33 20 17.5C20 16.89 20.36 16.37 20.88 16.13ZM20.88 21.63L20.88 21.63L26.38 19.13L26.38 19.13C26.57 19.05 26.78 19 27 19C27.83 19 28.5 19.67 28.5 20.5C28.5 21.11 28.14 21.63 27.62 21.87L27.62 21.87L22.12 24.37L22.12 24.37C21.93 24.45 21.72 24.5 21.5 24.5C20.67 24.5 20 23.83 20 23C20 22.39 20.36 21.87 20.88 21.63ZM7 8C7.22 8 7.43 8.05 7.62 8.13L7.62 8.13L13.12 10.63L13.12 10.63C13.64 10.87 14 11.39 14 12C14 12.83 13.33 13.5 12.5 13.5C12.28 13.5 12.07 13.45 11.88 13.37L11.88 13.37L6.38 10.87L6.38 10.87C5.86 10.63 5.5 10.11 5.5 9.5C5.5 8.67 6.17 8 7 8ZM7 13.5C7.22 13.5 7.43 13.55 7.62 13.63L7.62 13.63L13.12 16.13L13.12 16.13C13.64 16.37 14 16.89 14 17.5C14 18.33 13.33 19 12.5 19C12.28 19 12.07 18.95 11.88 18.86L11.88 18.87L6.38 16.37L6.38 16.37C5.86 16.13 5.5 15.61 5.5 15C5.5 14.17 6.17 13.5 7 13.5ZM7 19C7.22 19 7.43 19.05 7.62 19.13L7.62 19.13L13.12 21.63L13.12 21.63C13.64 21.87 14 22.39 14 23C14 23.83 13.33 24.5 12.5 24.5C12.28 24.5 12.07 24.45 11.88 24.37L11.88 24.37L6.38 21.87L6.38 21.87C5.86 21.63 5.5 21.11 5.5 20.5C5.5 19.67 6.17 19 7 19Z" />
	
</svg>