<!-- Generated by IcoMoon.io -->
<svg version="1.1" xmlns="http://www.w3.org/2000/svg" width="16" height="32" viewBox="0 0 16 32">
<title>facebook</title>
<path fill="#fff" d="M14.88 0.246c0 1.822 0 5.071 0 5.071s-3.742-0.369-4.677 1.058c-0.505 0.788-0.209 3.077-0.246 4.726 1.625 0 3.323 0 4.948 0-0.418 1.92-0.714 3.225-1.022 4.898-1.415 0-3.963 0-3.963 0v15.754c0 0-4.665 0-6.868 0 0-4.862 0-10.523 0-15.692-1.071 0-1.858 0-2.917 0 0-1.822 0-3.138 0-4.96 1.034 0 1.846 0 2.88 0 0.16-3.631 0.209-7.225 2.006-9.046 2.031-2.055 3.963-1.809 9.858-1.809z"></path>
</svg>
