<!-- Generated by IcoMoon.io -->
<svg version="1.1" xmlns="http://www.w3.org/2000/svg" width="38" height="32" viewBox="0 0 38 32">
<title>twitter</title>
<path fill="#f38181" d="M25.469 0.873c2.967-0.058 4.538 1.033 6.036 2.4 1.28-0.116 2.938-0.829 3.913-1.324 0.32-0.175 0.64-0.349 0.96-0.524-0.567 1.513-1.324 2.691-2.487 3.593-0.247 0.204-0.509 0.465-0.829 0.596 0 0 0 0.015 0 0.015 1.658-0.015 3.025-0.756 4.32-1.164 0 0 0 0 0 0.015-0.684 1.076-1.6 2.182-2.589 2.967-0.393 0.32-0.8 0.64-1.193 0.945 0.015 1.76-0.029 3.433-0.349 4.916-1.92 8.567-6.967 14.385-14.967 16.887-2.88 0.887-7.52 1.265-10.807 0.451-1.644-0.407-3.113-0.873-4.495-1.469-0.771-0.335-1.484-0.713-2.167-1.12-0.218-0.131-0.451-0.276-0.669-0.407 0.742 0.015 1.615 0.218 2.444 0.087 0.742-0.116 1.484-0.087 2.182-0.233 1.731-0.378 3.258-0.887 4.582-1.658 0.64-0.378 1.615-0.815 2.065-1.353-0.858 0.015-1.629-0.189-2.269-0.407-2.473-0.873-3.913-2.487-4.844-4.887 0.742 0.073 2.909 0.276 3.404-0.16-0.945-0.044-1.847-0.596-2.487-1.004-1.993-1.236-3.622-3.316-3.607-6.531 0.262 0.116 0.524 0.247 0.785 0.364 0.495 0.218 1.004 0.335 1.6 0.451 0.262 0.058 0.756 0.204 1.047 0.087-0.015 0-0.029 0-0.044 0-0.378-0.436-1.004-0.742-1.396-1.222-1.265-1.585-2.473-4.029-1.716-6.924 0.204-0.742 0.509-1.396 0.829-1.993 0.015 0 0.029 0.015 0.029 0.015 0.16 0.32 0.48 0.538 0.698 0.8 0.655 0.815 1.455 1.542 2.269 2.182 2.793 2.182 5.309 3.52 9.338 4.509 1.018 0.247 2.211 0.451 3.433 0.451-0.349-1.004-0.233-2.618 0.029-3.593 0.684-2.429 2.167-4.189 4.335-5.12 0.509-0.233 1.091-0.393 1.687-0.524 0.32-0.044 0.625-0.073 0.931-0.116z"></path>
</svg>
