<svg xmlns="http://www.w3.org/2000/svg" viewBox="0 0 32 29" >
	
			<path id="COMPUTER / OK" class="shp0" d="M30 24L22.5 24L20.5 24L20.5 26.5L22.5 28.5L22.5 29L9.5 29L9.5 28.5L11.5 26.5L11.5 24L9.5 24L2 24C1.17 24 0.5 23.33 0.5 22.5L0.5 2.5C0.5 1.67 1.17 1 2 1L30 1C30.83 1 31.5 1.67 31.5 2.5L31.5 22.5C31.5 23.33 30.83 24 30 24ZM29.5 3L2.5 3L2.5 20L29.5 20L29.5 3ZM13 10C13.41 10 13.79 10.17 14.06 10.44L14.06 10.44L15 11.38L17.94 8.44L17.94 8.44C18.21 8.17 18.59 8 19 8C19.83 8 20.5 8.67 20.5 9.5C20.5 9.91 20.33 10.29 20.06 10.56L20.06 10.56L16.06 14.56L16.06 14.56C15.79 14.83 15.41 15 15 15C14.59 15 14.21 14.83 13.94 14.56L13.94 14.56L11.94 12.56L11.94 12.56C11.67 12.29 11.5 11.91 11.5 11.5C11.5 10.67 12.17 10 13 10Z" />
	
</svg>