<svg xmlns="http://www.w3.org/2000/svg" viewBox="0 0 33 33" >
	
	
			<path d="M30.5 33L1.5 33C0.67 33 0 32.33 0 31.5L0 2.5C0 1.67 0.67 1 1.5 1L30.5 1C31.33 1 32 1.67 32 2.5L32 31.5C32 32.33 31.33 33 30.5 33ZM29 4L3 4L3 30L29 30L29 4ZM5.22 17.24L5.21 17.24L9.21 14.74L9.22 14.74C9.44 14.6 9.71 14.52 10 14.52C10.31 14.52 10.6 14.61 10.84 14.77L10.85 14.77L17.48 19.19L25.11 13.79C25.36 13.61 25.67 13.51 26 13.51C26.83 13.51 27.5 14.18 27.5 15.01C27.5 15.51 27.25 15.95 26.88 16.22L26.88 16.22L18.38 22.22L18.38 22.22C18.13 22.4 17.83 22.51 17.5 22.51C17.18 22.51 16.88 22.4 16.64 22.23L9.98 17.8L6.85 19.75C6.61 19.92 6.31 20.02 6 20.02C5.17 20.02 4.5 19.35 4.5 18.52C4.5 17.98 4.79 17.5 5.22 17.24Z" />
		
</svg>