<svg xmlns="http://www.w3.org/2000/svg" viewBox="0 0 32 32" >
	
	
			<path id="ALARM" class="shp0" d="M30.74 10.5C29.16 6.81 26.19 3.84 22.5 2.26C23.5 1.47 24.75 1 26.13 1C29.37 1 32 3.63 32 6.87C32 8.24 31.53 9.5 30.74 10.5ZM30.5 17C30.5 20.85 28.99 24.34 26.54 26.94L28.57 28.97C28.83 29.24 29 29.61 29 30.02C29 30.84 28.34 31.5 27.52 31.5C27.11 31.5 26.74 31.33 26.47 31.07L24.29 28.89C21.94 30.53 19.08 31.5 16 31.5C12.92 31.5 10.07 30.53 7.72 28.9L5.56 31.06C5.29 31.33 4.91 31.5 4.5 31.5C3.67 31.5 3 30.83 3 30C3 29.59 3.17 29.21 3.44 28.94L5.45 26.93C3.01 24.33 1.5 20.85 1.5 17C1.5 8.99 7.99 2.5 16 2.5C24.01 2.5 30.5 8.99 30.5 17ZM16 5.5C9.65 5.5 4.5 10.65 4.5 17C4.5 23.35 9.65 28.5 16 28.5C22.35 28.5 27.5 23.35 27.5 17C27.5 10.65 22.35 5.5 16 5.5ZM22 18.5L16 18.5C15.17 18.5 14.5 17.83 14.5 17L14.5 9C14.5 8.17 15.17 7.5 16 7.5C16.83 7.5 17.5 8.17 17.5 9L17.5 15.5L22 15.5C22.83 15.5 23.5 16.17 23.5 17C23.5 17.83 22.83 18.5 22 18.5ZM1.29 10.71C0.48 9.68 0 8.4 0 7C0 3.69 2.69 1 6 1C7.4 1 8.69 1.48 9.71 2.29C5.93 3.9 2.9 6.93 1.29 10.71Z" />
	
</svg>