<svg xmlns="http://www.w3.org/2000/svg" viewBox="0 0 33 31" >

			<path id="HOME" class="shp0" d="M33 16.5C33 17.33 32.33 18 31.5 18C31.1 18 30.75 17.84 30.48 17.59L30.48 17.6L17.04 4.16L17.04 4.16L17 4.12L17 4.12L3.55 17.57L3.55 17.57C3.28 17.83 2.91 18 2.5 18C1.67 18 1 17.33 1 16.5C1 16.07 1.18 15.69 1.46 15.42L15.92 0.96C16.19 0.68 16.58 0.5 17 0.5L17 0.5L17 0.5C17 0.5 17 0.5 17 0.5C17.03 0.5 17.05 0.5 17.08 0.5C17.08 0.5 17.09 0.5 17.09 0.5C17.11 0.5 17.14 0.51 17.16 0.51C17.16 0.51 17.16 0.51 17.16 0.51C17.53 0.55 17.86 0.72 18.1 0.98L18.1 0.98L24 6.88L24 5.5C24 4.67 24.67 4 25.5 4C26.33 4 27 4.67 27 5.5L27 9.88L32.6 15.48L32.59 15.48C32.84 15.75 33 16.1 33 16.5ZM30 19L30 23.5L30 25.5L30 29.5C30 30.33 29.33 31 28.5 31L25.5 31L25.5 19L19.5 19L19.5 31L5.5 31C4.67 31 4 30.33 4 29.5L4 25.5L4 23.5L4 19L17 6L30 19ZM14.5 19L8.5 19L8.5 25L14.5 25L14.5 19Z" />
		
</svg>