<svg xmlns="http://www.w3.org/2000/svg" viewBox="0 0 34 32" >
		
			<path id="IMAGE" class="shp0" d="M31.5 32L2.5 32C1.67 32 1 31.33 1 30.5L1 1.5C1 0.67 1.67 0 2.5 0L31.5 0C32.33 0 33 0.67 33 1.5L33 30.5C33 31.33 32.33 32 31.5 32ZM30 3L4 3L4 29L30 29L30 3ZM7.5 4.5L13 4.5L13 4.5C13.83 4.5 14.5 5.17 14.5 6C14.5 6.83 13.83 7.5 13 7.5L13 7.5L8.5 7.5L8.5 12L8.5 12C8.5 12.83 7.83 13.5 7 13.5C6.17 13.5 5.5 12.83 5.5 12L5.5 12L5.5 6.5L5.5 6.5L5.5 4.5L7.5 4.5L7.5 4.5ZM5.5 20L5.5 20C5.5 19.17 6.17 18.5 7 18.5C7.83 18.5 8.5 19.17 8.5 20L8.5 20L8.5 24.5L13 24.5L13 24.5C13.83 24.5 14.5 25.17 14.5 26C14.5 26.83 13.83 27.5 13 27.5L13 27.5L7.5 27.5L7.5 27.5L5.5 27.5L5.5 25.5L5.5 25.5L5.5 20ZM21 4.5L21 4.5L26.5 4.5L26.5 4.5L28.5 4.5L28.5 6.5L28.5 6.5L28.5 12L28.5 12C28.5 12.83 27.83 13.5 27 13.5C26.17 13.5 25.5 12.83 25.5 12L25.5 12L25.5 7.5L21 7.5L21 7.5C20.17 7.5 19.5 6.83 19.5 6C19.5 5.17 20.17 4.5 21 4.5ZM21 24.5L21 24.5L25.5 24.5L25.5 20L25.5 20C25.5 19.17 26.17 18.5 27 18.5C27.83 18.5 28.5 19.17 28.5 20L28.5 20L28.5 25.5L28.5 25.5L28.5 27.5L26.5 27.5L26.5 27.5L21 27.5L21 27.5C20.17 27.5 19.5 26.83 19.5 26C19.5 25.17 20.17 24.5 21 24.5Z" />
	
</svg>