<svg aria-hidden="true" style="position: absolute; width: 0; height: 0; overflow: hidden;" version="1.1" xmlns="http://www.w3.org/2000/svg" xmlns:xlink="http://www.w3.org/1999/xlink">
<defs>
    <symbol id="icon-search" viewBox="0 0 32 32">
    <title>MAGNIFYING-GLASS</title>
    <path d="M29.307 25.572c0.478 0.478 0.773 1.138 0.773 1.867 0 1.458-1.182 2.64-2.64 2.64-0.729 0-1.389-0.296-1.867-0.773 0 0 0 0 0 0s-7.737-7.737-7.737-7.737c-1.572 0.929-3.398 1.471-5.356 1.471-5.832 0-10.56-4.727-10.56-10.56s4.728-10.56 10.56-10.56 10.56 4.728 10.56 10.56c0 1.958-0.542 3.784-1.47 5.356 0 0 7.737 7.737 7.737 7.737s0 0 0 0zM12.48 4.559c-4.374 0-7.92 3.546-7.92 7.92s3.546 7.92 7.92 7.92c4.374 0 7.92-3.546 7.92-7.92s-3.546-7.92-7.92-7.92z"></path>
    </symbol>
    <symbol id="icon-cart" viewBox="0 0 38 32">
    <title>SHOPPING-CART</title>
    <path d="M35.249 8.777c0 0 0.002 0.001 0.002 0.001s-4.659 10.352-4.659 10.352c0 0-0 0-0 0-0.23 0.51-0.727 0.874-1.313 0.912 0 0 0 0 0 0s-13.417 0.894-13.417 0.894c0 0 0.775 2.215 0.775 2.215s14.609 0 14.609 0c1.715 0 3.106 1.391 3.106 3.107s-1.391 3.105-3.106 3.105c-1.715 0-3.106-1.39-3.106-3.105 0 0-14.494 0-14.494 0 0 1.715-1.391 3.105-3.106 3.105s-3.106-1.39-3.106-3.105c0-1.715 1.391-3.107 3.106-3.107 0 0 2.806 0 2.806 0s-5.979-17.082-5.979-17.082c0 0-3.557 0-3.557 0-0.858 0-1.553-0.696-1.553-1.553s0.695-1.553 1.553-1.553c0 0 4.659 0 4.659 0 0.678 0 1.248 0.436 1.46 1.042 0 0 0.006-0.002 0.006-0.002s0.904 2.584 0.904 2.584c0 0 22.995 0 22.995 0 0.858 0 1.553 0.695 1.553 1.553 0 0.227-0.051 0.441-0.139 0.636zM11.928 9.694c0 0 2.871 8.202 2.871 8.202s13.345-0.89 13.345-0.89c0 0 3.291-7.312 3.291-7.312s-19.506 0-19.506 0z"></path>
    </symbol>
</defs>
</svg>
