<!-- Generated by IcoMoon.io -->
<svg version="1.1" xmlns="http://www.w3.org/2000/svg" width="32" height="32" viewBox="0 0 32 32">
<title>alarm</title>
<path fill="#95e1d3" d="M30.74 10.5c-1.58-3.69-4.55-6.66-8.24-8.24 1-0.79 2.25-1.26 3.63-1.26 3.24 0 5.87 2.63 5.87 5.87 0 1.37-0.47 2.63-1.26 3.63zM30.5 17c0 3.85-1.51 7.34-3.96 9.94l2.030 2.030c0.26 0.27 0.43 0.64 0.43 1.050 0 0.82-0.66 1.48-1.48 1.48-0.41 0-0.78-0.17-1.050-0.43l-2.18-2.18c-2.35 1.64-5.21 2.61-8.29 2.61s-5.93-0.97-8.28-2.6l-2.16 2.16c-0.27 0.27-0.65 0.44-1.060 0.44-0.83 0-1.5-0.67-1.5-1.5 0-0.41 0.17-0.79 0.44-1.060l2.010-2.010c-2.44-2.6-3.95-6.080-3.95-9.93 0-8.010 6.49-14.5 14.5-14.5s14.5 6.49 14.5 14.5zM16 5.5c-6.35 0-11.5 5.15-11.5 11.5s5.15 11.5 11.5 11.5c6.35 0 11.5-5.15 11.5-11.5s-5.15-11.5-11.5-11.5zM22 18.5h-6c-0.83 0-1.5-0.67-1.5-1.5v-8c0-0.83 0.67-1.5 1.5-1.5s1.5 0.67 1.5 1.5v6.5h4.5c0.83 0 1.5 0.67 1.5 1.5s-0.67 1.5-1.5 1.5zM1.29 10.71c-0.81-1.030-1.29-2.31-1.29-3.71 0-3.31 2.69-6 6-6 1.4 0 2.69 0.48 3.71 1.29-3.78 1.61-6.81 4.64-8.42 8.42z"></path>
</svg>
