<!-- Generated by IcoMoon.io -->
<svg version="1.1" xmlns="http://www.w3.org/2000/svg" width="34" height="32" viewBox="0 0 34 32">
<title>home</title>
<path fill="#95e1d3" d="M34.065 17.032c0 0.857-0.692 1.548-1.548 1.548-0.413 0-0.774-0.165-1.053-0.423v0.010l-13.915-13.915-13.884 13.884c-0.279 0.268-0.661 0.444-1.084 0.444-0.857 0-1.548-0.692-1.548-1.548 0-0.444 0.186-0.836 0.475-1.115l14.926-14.926c0.279-0.289 0.681-0.475 1.115-0.475v0 0c0 0 0 0 0 0 0.031 0 0.052 0 0.083 0 0 0 0.010 0 0.010 0 0.021 0 0.052 0.010 0.072 0.010 0 0 0 0 0 0 0.382 0.041 0.723 0.217 0.97 0.485v0l6.090 6.090v-1.425c0-0.857 0.692-1.548 1.548-1.548s1.548 0.692 1.548 1.548v4.521l5.781 5.781h-0.010c0.258 0.279 0.423 0.64 0.423 1.053zM30.968 19.613v10.839c0 0.857-0.692 1.548-1.548 1.548h-3.097v-12.387h-6.194v12.387h-14.452c-0.857 0-1.548-0.692-1.548-1.548v-10.839l13.419-13.419 13.419 13.419zM14.968 19.613h-6.194v6.194h6.194v-6.194z"></path>
</svg>
