<!-- Generated by IcoMoon.io -->
<svg version="1.1" xmlns="http://www.w3.org/2000/svg" width="34" height="32" viewBox="0 0 34 32">
<title>image</title>
<path fill="#95e1d3" d="M31.5 32h-29c-0.83 0-1.5-0.67-1.5-1.5v-29c0-0.83 0.67-1.5 1.5-1.5h29c0.83 0 1.5 0.67 1.5 1.5v29c0 0.83-0.67 1.5-1.5 1.5zM30 3h-26v26h26v-26zM7.5 4.5h5.5c0.83 0 1.5 0.67 1.5 1.5s-0.67 1.5-1.5 1.5v0h-4.5v4.5c0 0.83-0.67 1.5-1.5 1.5s-1.5-0.67-1.5-1.5v0-7.5h2zM5.5 20v0c0-0.83 0.67-1.5 1.5-1.5s1.5 0.67 1.5 1.5v0 4.5h4.5c0.83 0 1.5 0.67 1.5 1.5s-0.67 1.5-1.5 1.5v0h-7.5v-7.5zM21 4.5v0h7.5v7.5c0 0.83-0.67 1.5-1.5 1.5s-1.5-0.67-1.5-1.5v0-4.5h-4.5c-0.83 0-1.5-0.67-1.5-1.5s0.67-1.5 1.5-1.5zM21 24.5v0h4.5v-4.5c0-0.83 0.67-1.5 1.5-1.5s1.5 0.67 1.5 1.5v0 7.5h-7.5c-0.83 0-1.5-0.67-1.5-1.5s0.67-1.5 1.5-1.5z"></path>
</svg>
