<!-- Generated by IcoMoon.io -->
<svg version="1.1" xmlns="http://www.w3.org/2000/svg" width="32" height="32" viewBox="0 0 32 32">
<title>line-graph</title>
<path fill="#95e1d3" d="M29.576 32h-28.121c-0.805 0-1.455-0.65-1.455-1.455v-28.121c0-0.805 0.65-1.455 1.455-1.455h28.121c0.805 0 1.455 0.65 1.455 1.455v28.121c0 0.805-0.65 1.455-1.455 1.455zM28.121 3.879h-25.212v25.212h25.212v-25.212zM5.062 16.718h-0.010l3.879-2.424h0.010c0.213-0.136 0.475-0.213 0.756-0.213 0.301 0 0.582 0.087 0.815 0.242h0.010l6.429 4.286 7.399-5.236c0.242-0.175 0.543-0.271 0.863-0.271 0.805 0 1.455 0.65 1.455 1.455 0 0.485-0.242 0.912-0.601 1.173v0l-8.242 5.818c-0.242 0.175-0.533 0.281-0.853 0.281-0.31 0-0.601-0.107-0.834-0.271l-6.458-4.296-3.035 1.891c-0.233 0.165-0.524 0.262-0.824 0.262-0.805 0-1.455-0.65-1.455-1.455 0-0.524 0.281-0.989 0.698-1.241z"></path>
</svg>
