<!-- Generated by IcoMoon.io -->
<svg version="1.1" xmlns="http://www.w3.org/2000/svg" width="35" height="32" viewBox="0 0 35 32">
<title>pc</title>
<path fill="#95e1d3" d="M33.103 26.483h-10.483v2.759l2.207 2.207v0.552h-14.345v-0.552l2.207-2.207v-2.759h-10.483c-0.916 0-1.655-0.739-1.655-1.655v-22.069c0-0.916 0.739-1.655 1.655-1.655h30.897c0.916 0 1.655 0.739 1.655 1.655v22.069c0 0.916-0.739 1.655-1.655 1.655zM32.552 3.31h-29.793v18.759h29.793v-18.759zM14.345 11.034c0.452 0 0.872 0.188 1.17 0.486v0l1.037 1.037 3.244-3.244c0.298-0.298 0.717-0.486 1.17-0.486 0.916 0 1.655 0.739 1.655 1.655 0 0.452-0.188 0.872-0.486 1.17v0l-4.414 4.414c-0.298 0.298-0.717 0.486-1.17 0.486s-0.872-0.188-1.17-0.486v0l-2.207-2.207c-0.298-0.298-0.486-0.717-0.486-1.17 0-0.916 0.739-1.655 1.655-1.655z"></path>
</svg>
